<?xml version="1.0" encoding="UTF-8"?>
<svg width="1081px" height="230px" viewBox="0 0 1081 230" version="1.1" xmlns="http://www.w3.org/2000/svg" xmlns:xlink="http://www.w3.org/1999/xlink">
    <!-- Generator: Sketch 55.2 (78181) - https://sketchapp.com -->
    <title>Slice 1</title>
    <desc>Created with Sketch.</desc>
    <g id="Page-1" stroke="none" stroke-width="1" fill="none" fill-rule="evenodd">
        <g id="LEADSTER_LOGO_01" transform="translate(-1548.000000, -569.000000)" fill="#FFFFFF" fill-rule="nonzero">
            <g id="Group" transform="translate(1548.000000, 569.000000)">
                <g id="Path">
                    <path d="M194.68,227.18 L194.68,227.18 C187.62,231.25 178.6,228.84 174.53,221.78 L129.95,144.54 L85.37,221.77 C81.3,228.83 72.27,231.24 65.22,227.17 L65.22,227.17 C58.16,223.1 55.74,214.07 59.82,207.02 L104.4,129.79 L15.24,129.79 C7.09,129.79 0.49,123.19 0.49,115.04 L0.49,115.04 C0.49,106.89 7.09,100.29 15.24,100.29 L129.96,100.29 C135.23,100.29 140.1,103.1 142.73,107.67 L200.09,207.03 C204.16,214.08 201.74,223.1 194.68,227.18 Z"></path>
                    <path d="M176.76,122.42 L176.76,122.42 C179.4,126.98 184.26,129.79 189.53,129.79 L244.66,129.79 C252.81,129.79 259.41,123.19 259.41,115.04 L259.41,115.04 C259.41,106.89 252.81,100.29 244.66,100.29 L189.53,100.29 C178.18,100.29 171.08,112.58 176.76,122.42 Z"></path>
                    <path d="M194.68,2.9 L194.68,2.9 C187.62,-1.17 178.6,1.24 174.53,8.3 L141.57,65.39 C137.5,72.45 139.91,81.47 146.97,85.54 L146.97,85.54 C154.02,89.61 163.04,87.19 167.12,80.14 L200.08,23.05 C204.15,16 201.74,6.98 194.68,2.9 Z"></path>
                    <path d="M118.27,65.4 L85.36,8.31 C81.29,1.26 72.27,-1.16 65.21,2.91 L65.2,2.91 C58.14,6.98 55.73,16 59.8,23.06 L92.7,80.15 C95.33,84.71 100.2,87.52 105.47,87.52 L105.48,87.52 C116.85,87.52 123.95,75.23 118.27,65.4 Z"></path>
                </g>
                <g transform="translate(342.000000, 33.000000)">
                    <polygon id="Path" points="93.25 129.75 0.81 129.75 0.81 5.07 27.93 5.07 27.93 106.38 93.26 106.38 93.26 129.75"></polygon>
                    <path d="M97,83.19 C97,44.64 130.43,34.41 148,34.41 C172.05,34.41 196.1,50.78 196.95,80.97 C196.95,88.13 196.44,92.74 196.44,92.74 L122.42,92.74 C125.49,108.09 142.89,109.8 148,109.8 C162.16,109.8 169.15,102.13 172.05,98.88 L191.84,110.31 C188.09,115.43 175.47,132.14 148.01,132.14 C129.75,132.14 97,121.74 97,83.19 Z M123.09,74.66 L169.99,74.66 C168.97,66.13 160.61,56.75 147.82,56.75 C133.16,56.75 124.12,65.11 123.09,74.66 Z" id="Shape"></path>
                    <path d="M283.59,120.37 C279.67,125.66 268.41,131.8 255.11,131.8 C225.43,131.8 208.03,109.8 208.03,82.85 C208.03,55.9 225.43,33.9 255.11,33.9 C268.76,33.9 278.82,39.36 283.59,45.67 L283.59,35.95 L308.83,35.95 L308.83,129.76 L283.59,129.76 L283.59,120.37 Z M258.86,56.24 C242.66,56.24 233.11,67.5 233.11,82.85 C233.11,97.69 243.17,109.29 258.86,109.29 C274.72,109.29 284.61,99.23 284.61,82.85 C284.62,67.33 274.72,56.24 258.86,56.24 Z" id="Shape"></path>
                    <path d="M394.97,120.37 C391.05,125.66 379.79,131.8 366.49,131.8 C336.81,131.8 319.41,109.8 319.41,82.85 C319.41,55.9 336.81,33.9 366.49,33.9 C380.14,33.9 390.2,39.36 394.97,45.67 L394.97,0.81 L420.21,0.81 L420.21,129.76 L394.97,129.76 L394.97,120.37 Z M370.24,56.24 C354.04,56.24 344.49,67.5 344.49,82.85 C344.49,97.69 354.55,109.29 370.24,109.29 C386.1,109.29 395.99,99.23 395.99,82.85 C395.99,67.33 386.1,56.24 370.24,56.24 Z" id="Shape"></path>
                    <path d="M428.23,117.3 L441.53,99.56 C448.86,104.51 460.63,109.62 471.89,109.62 C479.74,109.62 485.36,106.04 485.36,101.26 C485.36,94.95 472.23,94.27 467.28,93.41 C454.49,91.19 430.1,87.44 430.1,63.9 C430.1,36.44 459.78,34.22 468.82,34.22 C483.66,34.22 495.6,38.48 507.88,47.69 L494.58,65.09 C487.59,61 478.38,56.39 467.97,56.39 C463.02,56.39 455.69,58.78 455.69,63.38 C455.69,69.69 469.33,71.23 473.43,71.74 C489.29,74.47 510.78,77.2 510.78,101.42 C510.78,120.86 496.79,131.950046 472.23,131.950046 C452.11,131.97 438.46,125.49 428.23,117.3 Z" id="Path"></path>
                    <path d="M550.69,96.32 C550.69,101.44 550.86,110.31 562.29,110.31 C565.19,110.31 567.24,110.14 568.77,109.97 L568.77,131.46 C565.7,131.8 560.92,132.14 557.34,132.14 C537.55,132.14 525.45,128.56 525.45,108.77 L525.45,56.75 L514.02,56.75 L514.02,34.41 L525.45,34.41 L525.45,9.34 L550.69,9.34 L550.69,34.41 L569.45,34.41 L569.45,56.75 L550.69,56.75 L550.69,96.32 Z" id="Path"></path>
                    <path d="M572.69,83.19 C572.69,44.64 606.12,34.41 623.69,34.41 C647.74,34.41 671.79,50.78 672.64,80.97 C672.64,88.13 672.13,92.74 672.13,92.74 L598.11,92.74 C601.18,108.09 618.58,109.8 623.69,109.8 C637.85,109.8 644.84,102.13 647.74,98.88 L667.53,110.31 C663.78,115.43 651.16,132.14 623.7,132.14 C605.44,132.14 572.69,121.74 572.69,83.19 Z M598.79,74.66 L645.69,74.66 C644.67,66.13 636.31,56.75 623.52,56.75 C608.85,56.75 599.81,65.11 598.79,74.66 Z" id="Shape"></path>
                    <path d="M706.42,88.31 L706.42,129.76 L681,129.76 L681,35.95 L706.41,35.95 L706.41,48.4 C715.96,35.78 731.82,34.07 738.48,34.24 L738.48,59.14 C732.34,58.63 706.42,59.82 706.42,88.31 Z" id="Path"></path>
                </g>
            </g>
        </g>
    </g>
</svg>